<svg width="112" height="18" fill="none" xmlns="http://www.w3.org/2000/svg"><path d="M38.39 3.04c0-.42.16-.77.48-1.05q.14-.13.3-.23.39-.21.89-.21.51 0 .89.21.17.1.31.23.24.21.36.48.11.26.11.57 0 .26-.08.49-.12.32-.39.57-.14.13-.31.22-.38.22-.89.22c-.48 0-.88-.15-1.19-.44q-.28-.25-.39-.57-.09-.23-.09-.49zM25.21 14.65V2.34h3.25v4.57h4.75V2.34h3.25v12.31h-3.25V9.9h-4.75v4.75h-3.25zm29.54 0V2.34h2.99v4.4h.17c.17-.28.38-.53.64-.74q.41-.35.88-.54.56-.22 1.21-.22 1.27 0 2.09.61.23.16.42.38c.61.64.92 1.57.92 2.79v5.63h-2.99V9.46c0-.52-.14-.93-.42-1.23q-.09-.09-.19-.16-.39-.28-.97-.28-.38 0-.69.14-.32.14-.58.43c-.33.36-.49.85-.49 1.46v4.83h-2.99zm-10.51-1.39q-.25-.26-.44-.57-.74-1.15-.74-2.79 0-1.63.74-2.79.19-.3.44-.57c.78-.86 1.74-1.3 2.86-1.3.81 0 1.51.24 2.1.71.27.21.48.44.63.7H50V5.51h3V18h-8.71v-2.38H50v-2.37h-.17c-.17.25-.38.48-.63.66-.58.44-1.28.66-2.1.66-1.12 0-2.08-.44-2.86-1.31zM70.67 18V5.51h2.99v1.23h.18c.16-.27.38-.52.66-.74.65-.51 1.33-.76 2.06-.76 1.13 0 2.08.45 2.87 1.34q.14.16.26.32.92 1.26.92 3.18 0 1.91-.91 3.17-.13.18-.27.35c-.79.88-1.74 1.32-2.87 1.32-.74 0-1.42-.25-2.06-.74-.28-.22-.5-.48-.66-.76h-.18V18h-2.99zm12.16-4.4c-.78-.89-1.18-2.07-1.18-3.52 0-1.45.4-2.62 1.18-3.5.79-.89 1.74-1.34 2.87-1.34.73 0 1.41.25 2.06.76.27.22.49.47.67.74h.17V5.51h2.99v9.14H88.6v-1.23h-.17c-.17.28-.39.54-.67.76-.64.49-1.32.74-2.06.74-1.13 0-2.08-.44-2.87-1.32zm9.99-1.94h2.99c.04.18.14.34.29.5.32.31.78.47 1.38.47.82 0 1.23-.2 1.23-.62 0-.18-.12-.33-.35-.44-.24-.11-.59-.23-1.06-.35-.39-.09-.64-.15-.76-.17-.11-.03-.36-.09-.73-.2-.38-.11-.65-.21-.81-.3-.16-.09-.37-.22-.65-.38-.27-.18-.47-.35-.6-.53-.12-.19-.23-.42-.34-.69-.1-.28-.15-.58-.15-.89 0-.78.34-1.44 1.03-1.99q1.04-.83 2.92-.83c1.57 0 2.82.52 3.73 1.55.37.45.62.96.76 1.53h-2.9a1.5 1.5 0 00-.25-.44q-.07-.07-.14-.13-.39-.31-1.02-.31c-.71 0-1.06.21-1.06.62 0 .2.12.35.35.45.24.11.6.21 1.08.3 1.21.28 2.02.53 2.44.74q.93.45 1.31 1.19.28.52.28 1.19c0 .84-.38 1.55-1.13 2.12-.74.58-1.8.87-3.18.87q-1.93 0-3.17-.93-.4-.3-.72-.69c-.4-.48-.66-1.03-.77-1.64zm9.75 0h2.99c.05.18.15.34.3.5.32.31.78.47 1.37.47.82 0 1.24-.2 1.24-.62 0-.18-.12-.33-.36-.44-.23-.11-.58-.23-1.05-.35-.39-.09-.64-.15-.76-.17-.12-.03-.36-.09-.74-.2-.37-.11-.64-.21-.81-.3-.15-.09-.37-.22-.65-.38-.27-.18-.47-.35-.6-.53-.11-.19-.22-.42-.33-.69-.1-.28-.16-.58-.16-.89 0-.78.35-1.44 1.04-1.99.69-.55 1.67-.83 2.92-.83 1.57 0 2.81.52 3.73 1.55.36.45.61.96.76 1.53h-2.91c-.07-.19-.15-.33-.24-.44-.27-.29-.66-.44-1.16-.44-.71 0-1.06.21-1.06.62 0 .2.12.35.35.45.24.11.59.21 1.08.3 1.2.28 2.02.53 2.44.74q.93.45 1.31 1.19.27.52.27 1.19 0 .45-.14.85-.26.72-.98 1.27c-.74.58-1.8.87-3.19.87-1.7 0-2.99-.54-3.88-1.62a3.62 3.62 0 01-.78-1.64zm-64 2.99V5.51h2.99v9.14h-2.99zm8.09-6.29q-.04.05-.09.1-.43.55-.43 1.44c0 .66.17 1.18.52 1.55.35.38.82.56 1.41.56s1.06-.18 1.41-.56c.35-.37.52-.89.52-1.55 0-.65-.17-1.17-.52-1.54-.35-.38-.82-.57-1.41-.57s-1.06.19-1.41.57zm27.53.03q-.53.6-.53 1.69c0 .73.18 1.29.53 1.69q.19.21.42.35.42.25.98.25c.59 0 1.06-.2 1.41-.6.35-.4.53-.96.53-1.69s-.18-1.29-.53-1.69c-.35-.4-.82-.6-1.41-.6q-.56 0-.98.25-.23.14-.42.35zm11.07 0c-.35.4-.53.96-.53 1.69s.18 1.29.53 1.69c.35.4.82.6 1.41.6.58 0 1.05-.2 1.4-.6q.53-.6.53-1.69 0-1.09-.53-1.69c-.35-.4-.82-.6-1.4-.6-.59 0-1.06.2-1.41.6z" fill="#FFF" fill-rule="evenodd"/><path d="M3.51 3.51v10.56h10.56L3.51 3.51zM0 0v17.58h17.58V0H0z" fill="#FF6E30" fill-rule="evenodd"/></svg>