<svg width="20" height="20" fill="none" xmlns="http://www.w3.org/2000/svg"><path d="M19.92 18.25l-4.04-3.57c1.19-1.58 1.83-3.52 1.83-5.56 0-2.44-.92-4.73-2.59-6.45C13.44.94 11.22 0 8.85 0 6.49 0 4.26.95 2.59 2.67S0 6.68 0 9.12c0 2.44.92 4.73 2.59 6.45 1.67 1.73 3.9 2.68 6.26 2.68 1.98 0 3.86-.67 5.4-1.89l4.04 3.56c.03.03.05.04.08.06.03.01.06.02.1.02.03 0 .06-.01.09-.02.03-.02.05-.03.08-.06l1.28-1.32c.03-.02.04-.05.06-.08.01-.03.02-.07.02-.1s-.01-.06-.02-.09c-.02-.03-.03-.06-.06-.08zm-6.39-4.31a6.46 6.46 0 01-4.68 1.99c-1.76 0-3.42-.7-4.67-1.99s-1.94-3-1.94-4.82c0-1.82.69-3.53 1.94-4.82 1.25-1.28 2.91-1.99 4.67-1.99 1.77 0 3.43.7 4.68 1.99 1.25 1.29 1.94 3 1.94 4.82 0 1.82-.69 3.53-1.94 4.82z" fill="#FFF"/></svg>