<svg width="30" height="30" fill="none" xmlns="http://www.w3.org/2000/svg"><defs><clipPath id="a"><path transform="matrix(-1 0 0 1 30 0)" fill="#fff" fill-opacity="0" d="M0 0h30v30H0z"/></clipPath></defs><path fill="none" d="M30 0H0v30h30z"/><g clip-path="url(#a)"><path d="M30 15c0 8.284-6.716 15-15 15-8.284 0-15-6.716-15-15C0 6.716 6.716 0 15 0c8.284 0 15 6.716 15 15zM15.092 4.574a5.417 5.417 0 100 10.833 5.417 5.417 0 000-10.833zm0 7.656a2.24 2.24 0 110-4.478 2.24 2.24 0 010 4.478zm1.912 7.488c2.169-.442 3.468-1.469 3.537-1.524a1.473 1.473 0 00-1.843-2.298c-.013.01-1.4 1.074-3.68 1.075-2.28-.001-3.696-1.064-3.709-1.075a1.473 1.473 0 00-1.843 2.298c.07.056 1.423 1.11 3.652 1.541l-3.107 3.247a1.473 1.473 0 102.12 2.045l2.887-3.075 3.178 3.095a1.473 1.473 0 102.082-2.085l-3.274-3.244z" fill="#CACACA" fill-rule="evenodd"/></g></svg>