<svg width="30" height="30" fill="none" xmlns="http://www.w3.org/2000/svg"><path d="M15 0C6.716 0 0 6.716 0 15c0 8.284 6.716 15 15 15 8.284 0 15-6.716 15-15 0-8.284-6.716-15-15-15zm7.609 16.622c.699.683 1.439 1.326 2.066 2.08.278.333.54.677.74 1.065.285.553.027 1.159-.467 1.192l-3.073-.001c-.794.066-1.425-.254-1.958-.797-.425-.433-.82-.894-1.229-1.342a2.88 2.88 0 00-.553-.492c-.42-.272-.783-.189-1.023.249-.245.445-.3.939-.324 1.434-.033.725-.252.914-.979.948-1.554.073-3.027-.163-4.398-.946-1.208-.69-2.144-1.666-2.959-2.77C6.865 15.09 5.65 12.728 4.557 10.3c-.246-.548-.066-.84.538-.852a84.652 84.652 0 013.009 0c.408.006.678.24.835.624.542 1.334 1.206 2.603 2.039 3.78.222.313.448.625.77.846.357.245.628.164.796-.233.107-.253.153-.523.177-.794.08-.927.09-1.854-.049-2.777-.086-.578-.41-.951-.987-1.06-.293-.056-.25-.165-.108-.333.248-.29.48-.469.944-.469h3.472c.547.107.67.353.744.904l.003 3.858c-.006.214.107.846.49.986.307.1.51-.145.693-.34.833-.883 1.426-1.926 1.957-3.005.235-.476.437-.969.634-1.462.146-.365.373-.545.785-.539l3.343.004c.099 0 .199.001.296.018.564.097.718.339.544.889-.275.863-.808 1.583-1.329 2.304-.558.772-1.154 1.517-1.707 2.293-.509.709-.468 1.066.163 1.681z" fill="#CACACA"/></svg>