<svg width="11.000000" height="13.000000" viewBox="0 0 11 13" fill="none" xmlns="http://www.w3.org/2000/svg" xmlns:xlink="http://www.w3.org/1999/xlink">
	<desc>
			Created with Pixso.
	</desc>
	<defs/>
	<path id="Vector" d="M9.66 0.75L9.08 0.75L9.08 -0.42L7.91 -0.42L7.91 0.75L2.08 0.75L2.08 -0.42L0.91 -0.42L0.91 0.75L0.33 0.75C-0.31 0.75 -0.84 1.27 -0.84 1.91L-0.84 11.25C-0.84 11.89 -0.31 12.41 0.33 12.41L9.66 12.41C10.3 12.41 10.83 11.89 10.83 11.25L10.83 1.91C10.83 1.27 10.3 0.75 9.66 0.75ZM9.66 11.25L0.33 11.25L0.33 3.66L9.66 3.66L9.66 11.25Z" fill="#FFFFFF" fill-opacity="1.000000" fill-rule="nonzero"/>
</svg>
