<svg width="112.000000" height="18.000000" viewBox="0 0 112 18" fill="none" xmlns="http://www.w3.org/2000/svg" xmlns:xlink="http://www.w3.org/1999/xlink">
	<desc>
			Created with Pixso.
	</desc>
	<defs/>
	<path id="High pass" d="M38.39 3.04C38.39 2.62 38.55 2.27 38.87 1.99Q39.01 1.86 39.17 1.76Q39.56 1.55 40.06 1.55Q40.57 1.55 40.95 1.76Q41.12 1.86 41.26 1.99Q41.5 2.2 41.62 2.47Q41.73 2.73 41.73 3.04Q41.73 3.3 41.65 3.53Q41.53 3.85 41.26 4.1Q41.12 4.23 40.95 4.32Q40.57 4.54 40.06 4.54C39.58 4.54 39.18 4.39 38.87 4.1Q38.59 3.85 38.48 3.53Q38.39 3.3 38.39 3.04ZM25.21 14.65L25.21 2.34L28.46 2.34L28.46 6.91L33.21 6.91L33.21 2.34L36.46 2.34L36.46 14.65L33.21 14.65L33.21 9.9L28.46 9.9L28.46 14.65L25.21 14.65ZM54.75 14.65L54.75 2.34L57.74 2.34L57.74 6.74L57.91 6.74C58.08 6.46 58.29 6.21 58.55 6Q58.96 5.65 59.43 5.46L59.43 5.46Q59.99 5.24 60.64 5.24Q61.91 5.24 62.73 5.85Q62.96 6.01 63.15 6.23C63.76 6.87 64.07 7.8 64.07 9.02L64.07 14.65L61.08 14.65L61.08 9.46C61.08 8.94 60.94 8.53 60.66 8.23Q60.57 8.14 60.47 8.07Q60.08 7.79 59.5 7.79Q59.12 7.79 58.81 7.93Q58.49 8.07 58.23 8.36C57.9 8.72 57.74 9.21 57.74 9.82L57.74 14.65L54.75 14.65ZM44.24 13.26Q43.99 13 43.8 12.69L43.8 12.69Q43.06 11.54 43.06 9.9Q43.06 8.27 43.8 7.11Q43.99 6.81 44.24 6.54C45.02 5.68 45.98 5.24 47.1 5.24C47.91 5.24 48.61 5.48 49.2 5.95C49.47 6.16 49.68 6.39 49.83 6.65L50 6.65L50 5.51L53 5.51L53 18L44.29 18L44.29 15.62L50 15.62L50 13.25L49.83 13.25C49.66 13.5 49.45 13.73 49.2 13.91C48.62 14.35 47.92 14.57 47.1 14.57C45.98 14.57 45.02 14.13 44.24 13.26ZM70.67 18L70.67 5.51L73.66 5.51L73.66 6.74L73.84 6.74C74 6.47 74.22 6.22 74.5 6C75.15 5.49 75.83 5.24 76.56 5.24C77.69 5.24 78.64 5.69 79.43 6.58Q79.57 6.74 79.69 6.9Q80.61 8.16 80.61 10.08Q80.61 11.99 79.7 13.25L79.7 13.25Q79.57 13.43 79.43 13.6C78.64 14.48 77.69 14.92 76.56 14.92C75.82 14.92 75.14 14.67 74.5 14.18C74.22 13.96 74 13.7 73.84 13.42L73.66 13.42L73.66 18L70.67 18ZM82.83 13.6C82.05 12.71 81.65 11.53 81.65 10.08C81.65 8.63 82.05 7.46 82.83 6.58C83.62 5.69 84.57 5.24 85.7 5.24C86.43 5.24 87.11 5.49 87.76 6C88.03 6.22 88.25 6.47 88.43 6.74L88.6 6.74L88.6 5.51L91.59 5.51L91.59 14.65L88.6 14.65L88.6 13.42L88.43 13.42C88.26 13.7 88.04 13.96 87.76 14.18C87.12 14.67 86.44 14.92 85.7 14.92C84.57 14.92 83.62 14.48 82.83 13.6ZM92.82 11.66L95.81 11.66C95.85 11.84 95.95 12 96.1 12.16C96.42 12.47 96.88 12.63 97.48 12.63C98.3 12.63 98.71 12.43 98.71 12.01C98.71 11.83 98.59 11.68 98.36 11.57C98.12 11.46 97.77 11.34 97.3 11.22C96.91 11.13 96.66 11.07 96.54 11.05C96.43 11.02 96.18 10.96 95.81 10.85C95.43 10.74 95.16 10.64 95 10.55C94.84 10.46 94.63 10.33 94.35 10.17C94.08 9.99 93.88 9.82 93.75 9.64C93.63 9.45 93.52 9.22 93.41 8.95C93.31 8.67 93.26 8.37 93.26 8.06C93.26 7.28 93.6 6.62 94.29 6.07Q95.33 5.24 97.21 5.24C98.78 5.24 100.03 5.76 100.94 6.79C101.31 7.24 101.56 7.75 101.7 8.32L98.8 8.32C98.73 8.13 98.64 7.99 98.55 7.88Q98.48 7.81 98.41 7.75L98.41 7.75Q98.02 7.44 97.39 7.44C96.68 7.44 96.33 7.65 96.33 8.06C96.33 8.26 96.45 8.41 96.68 8.51C96.92 8.62 97.28 8.72 97.76 8.81C98.97 9.09 99.78 9.34 100.2 9.55Q101.13 10 101.51 10.74Q101.79 11.26 101.79 11.93C101.79 12.77 101.41 13.48 100.66 14.05C99.92 14.63 98.86 14.92 97.48 14.92Q95.55 14.92 94.31 13.99Q93.91 13.69 93.59 13.3C93.19 12.82 92.93 12.27 92.82 11.66ZM102.57 11.66L105.56 11.66C105.61 11.84 105.71 12 105.86 12.16C106.18 12.47 106.64 12.63 107.23 12.63C108.05 12.63 108.47 12.43 108.47 12.01C108.47 11.83 108.35 11.68 108.11 11.57C107.88 11.46 107.53 11.34 107.06 11.22C106.67 11.13 106.42 11.07 106.3 11.05C106.18 11.02 105.94 10.96 105.56 10.85C105.19 10.74 104.92 10.64 104.75 10.55C104.6 10.46 104.38 10.33 104.1 10.17C103.83 9.99 103.63 9.82 103.5 9.64C103.39 9.45 103.28 9.22 103.17 8.95C103.07 8.67 103.01 8.37 103.01 8.06C103.01 7.28 103.36 6.62 104.05 6.07C104.74 5.52 105.72 5.24 106.97 5.24C108.54 5.24 109.78 5.76 110.7 6.79C111.06 7.24 111.31 7.75 111.46 8.32L108.55 8.32C108.48 8.13 108.4 7.99 108.31 7.88C108.04 7.59 107.65 7.44 107.15 7.44C106.44 7.44 106.09 7.65 106.09 8.06C106.09 8.26 106.21 8.41 106.44 8.51C106.68 8.62 107.03 8.72 107.52 8.81C108.72 9.09 109.54 9.34 109.96 9.55Q110.89 10 111.27 10.74Q111.54 11.26 111.54 11.93Q111.54 12.38 111.4 12.78Q111.14 13.5 110.42 14.05C109.68 14.63 108.62 14.92 107.23 14.92C105.53 14.92 104.24 14.38 103.35 13.3C102.95 12.82 102.69 12.27 102.57 11.66ZM38.57 14.65L38.57 5.51L41.56 5.51L41.56 14.65L38.57 14.65ZM46.66 8.36Q46.62 8.41 46.57 8.46L46.57 8.46Q46.14 9.01 46.14 9.9C46.14 10.56 46.31 11.08 46.66 11.45C47.01 11.83 47.48 12.01 48.07 12.01C48.66 12.01 49.13 11.83 49.48 11.45C49.83 11.08 50 10.56 50 9.9C50 9.25 49.83 8.73 49.48 8.36C49.13 7.98 48.66 7.79 48.07 7.79C47.48 7.79 47.01 7.98 46.66 8.36ZM74.19 8.39Q73.66 8.99 73.66 10.08C73.66 10.81 73.84 11.37 74.19 11.77Q74.38 11.98 74.61 12.12Q75.03 12.37 75.59 12.37C76.18 12.37 76.65 12.17 77 11.77C77.35 11.37 77.53 10.81 77.53 10.08C77.53 9.35 77.35 8.79 77 8.39C76.65 7.99 76.18 7.79 75.59 7.79Q75.03 7.79 74.61 8.04L74.61 8.04Q74.38 8.18 74.19 8.39ZM85.26 8.39C84.91 8.79 84.73 9.35 84.73 10.08C84.73 10.81 84.91 11.37 85.26 11.77C85.61 12.17 86.08 12.37 86.67 12.37C87.25 12.37 87.72 12.17 88.07 11.77Q88.6 11.17 88.6 10.08Q88.6 8.99 88.07 8.39C87.72 7.99 87.25 7.79 86.67 7.79C86.08 7.79 85.61 7.99 85.26 8.39Z" fill="#FFFFFF" fill-opacity="1.000000" fill-rule="evenodd"/>
	<path id="Rectangle 5 (Stroke)" d="M3.51 3.51L3.51 14.07L14.07 14.07L3.51 3.51ZM0 0L0 17.58L17.58 17.58L17.58 0L0 0Z" fill="#FF6E30" fill-opacity="1.000000" fill-rule="evenodd"/>
</svg>
