<svg width="20.000000" height="20.000000" viewBox="0 0 20 20" fill="none" xmlns="http://www.w3.org/2000/svg" xmlns:xlink="http://www.w3.org/1999/xlink">
	<desc>
			Created with Pixso.
	</desc>
	<defs/>
	<path id="Vector" d="M19.92 18.25L15.88 14.68C17.07 13.1 17.71 11.16 17.71 9.12C17.71 6.68 16.79 4.39 15.12 2.67C13.44 0.94 11.22 0 8.85 0C6.49 0 4.26 0.95 2.59 2.67C0.92 4.39 0 6.68 0 9.12C0 11.56 0.92 13.85 2.59 15.57C4.26 17.3 6.49 18.25 8.85 18.25C10.83 18.25 12.71 17.58 14.25 16.36L18.29 19.92C18.32 19.95 18.34 19.96 18.37 19.98C18.4 19.99 18.43 20 18.47 20C18.5 20 18.53 19.99 18.56 19.98C18.59 19.96 18.61 19.95 18.64 19.92L19.92 18.6C19.95 18.58 19.96 18.55 19.98 18.52C19.99 18.49 20 18.45 20 18.42C20 18.39 19.99 18.36 19.98 18.33C19.96 18.3 19.95 18.27 19.92 18.25ZM13.53 13.94C12.28 15.23 10.62 15.93 8.85 15.93C7.09 15.93 5.43 15.23 4.18 13.94C2.93 12.65 2.24 10.94 2.24 9.12C2.24 7.3 2.93 5.59 4.18 4.3C5.43 3.02 7.09 2.31 8.85 2.31C10.62 2.31 12.28 3.01 13.53 4.3C14.78 5.59 15.47 7.3 15.47 9.12C15.47 10.94 14.78 12.65 13.53 13.94Z" fill="#FFFFFF" fill-opacity="1.000000" fill-rule="nonzero"/>
</svg>
